# xmcd CD database file
#
# Track frame offsets:
#	187
#	32227
#	43900
#	69290
#	86757
#	123867
#
# Disc length: 1901 seconds
#
# Revision: 0
# Processed by: cddbd v1.5.2PL0 Copyright (c) Steve Scherf et al.
# Submitted via: CDex 1.70beta2
#
DISCID=4b076b06
DTITLE=Lou Donaldson - Signifyin'
DYEAR=1963
DGENRE=Jazz
TTITLE0=Signifyin'
TTITLE1=Time After Time
TTITLE2=Si Si Safronia
TTITLE3=Don't Get Around Much Anymore
TTITLE4=I Feel It In My Bones
TTITLE5=Coppin' A Plea
EXTD=YEAR: 1963
EXTT0=
EXTT1=
EXTT2=
EXTT3=
EXTT4=
EXTT5=
PLAYORDER=
